<svg width="96" height="96" viewBox="0 0 96 96" fill="none" xmlns="http://www.w3.org/2000/svg">
<rect width="96" height="96" fill="white"/>
<path d="M93.4629 47.1036L87.6305 45.3718L89.1047 41.3427C89.2251 41.0116 89.1642 40.6413 88.9423 40.3676L86.869 37.7994C86.6926 37.5789 86.4294 37.4445 86.1473 37.4284L69.0074 36.426L70.9491 35.3704C71.2249 35.2199 71.4147 34.949 71.4622 34.6389L72.1657 29.9853C72.242 29.4785 71.9249 28.9955 71.4293 28.8653L66.9739 27.6914C66.8899 27.669 66.8045 27.6585 66.7177 27.6585C66.5532 27.6585 66.3887 27.6998 66.241 27.7789L58.7952 31.7983L58.9387 31.344C58.9646 31.2565 58.98 31.1655 58.9842 31.0738L59.1277 26.3426C59.1438 25.7966 58.721 25.3381 58.1764 25.3102L53.2925 25.0574C53.2743 25.0567 53.2582 25.0567 53.24 25.0567C52.8025 25.0567 52.4154 25.3395 52.2824 25.7595L52.0633 26.4567C51.9793 26.3314 51.8673 26.2257 51.7322 26.1473L30.9111 14.1054C30.7557 14.0151 30.5821 13.9696 30.4092 13.9696C30.2363 13.9696 30.062 14.0151 29.9073 14.104L12.539 24.1384C12.2289 24.3183 12.0371 24.6494 12.0371 25.0071L12.0378 41.0417C12.0378 41.4001 12.2282 41.7319 12.5397 41.9104L22.045 47.3998L2.49262 54.2094C2.03482 54.369 1.75692 54.8317 1.83112 55.3112L2.27071 58.1434C2.28471 58.2337 2.31061 58.3212 2.34771 58.4031L4.0165 62.0899C4.1831 62.4581 4.54639 62.68 4.9307 62.68C5.0399 62.68 5.1526 62.6618 5.2611 62.624L7.60394 61.8078L6.89416 62.2334C6.45666 62.4966 6.28587 63.0461 6.49655 63.5102L8.02323 66.8576C8.05963 66.9346 8.10443 67.0074 8.15763 67.0746L10.243 69.6429C10.4397 69.8844 10.7288 70.0132 11.0228 70.0132C11.1992 70.0132 11.3777 69.967 11.5387 69.8697L31.4655 57.9089L23.345 73.6748C23.2337 73.8904 23.2043 74.1396 23.2624 74.3755L23.9757 77.2622C24.0632 77.6164 24.3348 77.8943 24.6862 77.9895L29.1319 79.197C29.2194 79.2201 29.3076 79.232 29.3951 79.232C29.7633 79.232 30.1119 79.0283 30.2869 78.6881L39.9376 59.9457V81.0266C39.9376 81.5817 40.387 82.0304 40.9414 82.0304H45.8477C46.4014 82.0304 46.8515 81.5817 46.8515 81.0266V59.7146L59.4178 66.9685C59.5732 67.0581 59.7461 67.1029 59.9197 67.1029C60.0933 67.1029 60.2669 67.0574 60.4223 66.9685L74.3066 58.9465C74.6167 58.7666 74.8071 58.4355 74.8071 58.0778V50.7622L91.2107 55.6369C91.3059 55.6642 91.4011 55.6782 91.497 55.6782C91.8841 55.6782 92.2488 55.4522 92.4133 55.0833L94.0933 51.3179C94.1507 51.1891 94.1808 51.0498 94.1808 50.9098L94.1801 48.0651C94.1801 47.6213 93.8882 47.2293 93.4626 47.1026L93.4629 47.1036ZM85.8364 38.9186L87.0579 40.4305L70.3105 39.4491L67.5308 37.8469L85.8364 38.9186ZM70.0096 34.1684L65.4485 36.6478L62.6463 35.021L70.5241 30.7573L70.0096 34.1684ZM66.7799 29.1992L69.8179 30L61.6314 34.4303L60.1733 33.5833C60.1551 33.5721 60.1341 33.5714 60.1152 33.563C60.0823 33.5476 60.0501 33.5357 60.0137 33.5287C59.9843 33.5224 59.9542 33.5224 59.9241 33.5224C59.8912 33.5217 59.859 33.5224 59.8247 33.5294C59.7897 33.5364 59.7582 33.5497 59.7267 33.5623C59.7064 33.57 59.6875 33.5714 59.6686 33.5826L56.4416 35.4454L55.8886 35.1241L55.9068 35.0646C55.9131 35.0618 55.9187 35.0639 55.9229 35.0604L57.3362 34.2925H57.3369L66.7799 29.1992ZM57.477 30.9604L56.6811 33.5084L56.3367 33.696L57.5085 29.9511L57.477 30.9604ZM51.7287 32.5354L53.5984 26.5806L57.4476 26.7794L54.9962 34.6186L51.7287 32.7293V32.5354ZM30.4058 15.5534L50.2252 27.0166L33.8748 36.4462L14.0447 25.0069L30.4058 15.5534ZM50.7252 27.8844V32.1495L48.0107 30.5774C47.9904 30.5662 47.9708 30.5655 47.9505 30.5564C47.9183 30.5424 47.8882 30.5305 47.8532 30.5242C47.8203 30.5172 47.7888 30.5172 47.7559 30.5172C47.7258 30.5172 47.6957 30.5172 47.6656 30.5235C47.6285 30.5305 47.5942 30.5445 47.5599 30.5599C47.5417 30.5669 47.5235 30.5676 47.5067 30.5781L37.09 36.593C37.0823 36.5979 37.0767 36.6063 37.069 36.6119C37.0487 36.6238 37.0319 36.6371 37.0151 36.6532C36.9969 36.6693 36.9808 36.684 36.9647 36.7036C36.9507 36.7197 36.9374 36.7358 36.9255 36.754C36.9192 36.7631 36.9101 36.768 36.9052 36.7764C36.9003 36.7841 36.9003 36.7967 36.8954 36.8058C36.8856 36.8261 36.8772 36.845 36.8702 36.8667C36.8625 36.8891 36.8562 36.9108 36.852 36.9332C36.8478 36.9556 36.845 36.9766 36.8429 36.9983C36.8429 37.0081 36.8366 37.0172 36.8366 37.0277V42.7719L34.4847 43.5881L34.484 43.5888C34.4469 43.6021 34.4147 43.628 34.3804 43.6497C34.3783 43.6518 34.3755 43.6525 34.3727 43.6546V37.3176L50.7252 27.8844ZM13.5433 40.7525V25.8755L33.3716 37.3141V44.0998L33.3576 44.0956C33.3387 44.0893 33.3198 44.0935 33.3002 44.0907C33.2673 44.0844 33.2358 44.0816 33.2022 44.083C33.17 44.0837 33.1399 44.0879 33.1098 44.0949C33.0895 44.0991 33.0699 44.0956 33.0496 44.1026L24.4957 47.0769L13.5433 40.7525ZM3.38218 55.4952L24.61 48.1025L33.2263 45.1058L33.7288 45.2556C33.7757 45.2696 33.824 45.2766 33.8723 45.2766C33.9367 45.2766 33.9997 45.2626 34.0599 45.2395C34.0851 45.2283 34.104 45.2115 34.1271 45.1975C34.1551 45.1807 34.1866 45.1681 34.2111 45.145L34.9139 44.501L37.5053 43.6015C37.506 43.6015 37.506 43.6008 37.5074 43.6008L39.1986 43.0191L39.3372 43.9263V43.927L39.4716 44.8223L3.66598 57.3172L3.38218 55.4952ZM5.19872 61.0525L3.94503 58.2819L29.0866 49.5081L16.2717 57.1934L5.19872 61.0525ZM11.2467 68.289L10.1477 65.8614L35.9021 50.3923L33.592 54.8778L11.2467 68.289ZM25.367 76.6148L24.9274 74.8389L28.2748 75.7384L28.7074 77.522L25.367 76.6148ZM40.4406 55.6844L29.5668 76.8029L29.2259 75.3952L40.4413 53.6065L40.4406 55.6844ZM40.4406 51.4159L28.4329 74.7439L24.9679 73.813L34.4192 55.4648L37.5349 49.4147L40.4413 47.6794L40.4406 51.4159ZM40.4406 46.5103L36.8978 48.6236L36.8971 48.6243L9.62135 65.0077L8.16606 63.2262L16.7452 58.0791L31.6151 49.1611L40.4329 46.182C40.435 46.1813 40.4371 46.1792 40.4399 46.1778L40.4406 46.5103ZM40.7325 45.5079V45.5051L40.5176 45.0186L40.351 43.9106L40.7059 43.7026L41.5529 44.7414L41.5536 44.7421L42.1374 45.4589H40.9425C40.8662 45.4589 40.7969 45.4778 40.7325 45.5079H40.7325ZM45.3461 80.5269H41.4437V78.7313H45.3461V80.5269ZM45.3461 53.9733V77.7278H41.4437L41.443 55.8047V46.4618H45.3476L45.3469 53.972L45.3461 53.9733ZM43.3029 45.306L43.557 45.3732L43.5129 45.4586H43.3897L43.3673 45.4089C43.3624 45.3977 43.3519 45.3907 43.347 45.3809C43.3421 45.3711 43.3421 45.3585 43.3351 45.3487C43.3281 45.3389 43.3183 45.3326 43.312 45.3235C43.3078 45.3172 43.3071 45.3116 43.3029 45.306H43.3029ZM45.5227 45.46H44.6427L44.7351 45.2815C44.747 45.2584 44.7484 45.2311 44.7561 45.2073C44.7589 45.1961 44.7715 45.1912 44.7743 45.18C44.7785 45.1639 44.7743 45.1492 44.7771 45.1331C44.782 45.1002 44.7841 45.0687 44.7834 45.0351C44.7827 45.0008 44.7792 44.9721 44.7722 44.9385C44.7652 44.9084 44.7554 44.8804 44.7421 44.8524C44.7288 44.8223 44.7141 44.7929 44.6952 44.7663C44.677 44.7411 44.6574 44.7194 44.635 44.6984C44.6112 44.6746 44.586 44.6529 44.5559 44.6354C44.5426 44.6263 44.5349 44.6144 44.5195 44.606C44.5013 44.5969 44.4824 44.5969 44.4656 44.5899C44.4488 44.5829 44.4355 44.571 44.4187 44.5668L42.2272 43.9837L41.2108 42.737C41.1968 42.7202 41.1786 42.7132 41.1639 42.6978C41.1401 42.6747 41.1156 42.6523 41.0876 42.6355C41.0582 42.6173 41.0295 42.6054 40.998 42.5935C40.97 42.5823 40.9441 42.5725 40.9147 42.5683C40.8797 42.5613 40.8454 42.5606 40.8104 42.5613C40.781 42.562 40.7544 42.5634 40.7264 42.569C40.6914 42.576 40.6599 42.5893 40.627 42.6019C40.6081 42.611 40.5878 42.611 40.5696 42.6222L40.1881 42.8462L40.1006 42.2785C40.0985 42.2624 40.0887 42.2512 40.0845 42.2351C40.0817 42.2197 40.0838 42.2057 40.0782 42.191C40.0719 42.1728 40.0579 42.1609 40.0509 42.1441C40.0355 42.1133 40.0201 42.0832 39.9984 42.0559C39.9795 42.0321 39.9606 42.0104 39.9382 41.9908C39.9123 41.9677 39.8857 41.9467 39.8549 41.9285C39.8311 41.9145 39.8059 41.9033 39.7793 41.8935C39.7464 41.8802 39.7142 41.8725 39.6778 41.8662C39.647 41.8613 39.6155 41.8613 39.5847 41.862C39.5644 41.8627 39.5469 41.8571 39.5273 41.8599C39.5112 41.862 39.5 41.8718 39.4853 41.876C39.4699 41.8802 39.4552 41.8767 39.4412 41.8823L37.8445 42.4325V37.9036L45.5235 42.3499V45.4599L45.5227 45.46ZM38.3436 37.0271L47.7564 31.5909L50.9749 33.4542L55.0363 35.8026C55.0405 35.8047 55.044 35.8033 55.0482 35.8054C55.0545 35.8096 55.058 35.8152 55.0643 35.8187L55.2127 35.8922L55.4416 36.0259L46.0245 41.4746L38.3436 37.0271ZM59.4191 65.2347L46.5274 57.7917V42.9245L59.4191 50.3576V65.2347ZM47.0285 42.0536L56.6864 36.4648H56.6871L56.6913 36.462C56.692 36.462 56.692 36.4613 56.6934 36.4613L59.9196 34.5999L61.37 35.442L65.1891 37.661H65.1898V37.6617L69.9092 40.382H69.9113L72.8023 42.0556L59.921 49.4888L47.0285 42.0536ZM73.3025 45.1496V57.7915L60.4212 65.2338L60.4219 50.3568L73.3032 42.9236L73.3025 45.1496ZM74.2741 41.8932C74.2664 41.8722 74.258 41.8519 74.2489 41.8323C74.2447 41.8232 74.2447 41.812 74.2391 41.8043C74.2342 41.7952 74.2251 41.7903 74.2188 41.7819C74.2069 41.763 74.1936 41.7476 74.1796 41.7294C74.1635 41.7112 74.1488 41.6951 74.1292 41.679C74.1124 41.6636 74.0963 41.6517 74.0767 41.6398C74.069 41.6335 74.0627 41.6244 74.0557 41.6195L72.2392 40.5688L87.4556 41.4606L86.2916 44.6477L82.7278 44.4419L74.288 41.9254C74.2852 41.9142 74.2768 41.9051 74.274 41.8932L74.2741 41.8932ZM91.2175 54.071L74.3057 49.0443V45.8228L92.4853 51.2311L91.2175 54.071ZM92.6749 50.2385L74.3053 44.7751V42.979L82.4952 45.4213H82.4973L92.6752 48.4431L92.6749 50.2385Z" fill="black"/>
</svg>
