<svg width="48" height="48" viewBox="0 0 48 48" fill="none" xmlns="http://www.w3.org/2000/svg">
<rect width="48" height="48" fill="white"/>
<path d="M46.7315 23.5518L43.8153 22.6859L44.5524 20.6714C44.6126 20.5058 44.5821 20.3207 44.4712 20.1838L43.4345 18.8997C43.3463 18.7894 43.2147 18.7222 43.0737 18.7142L34.5037 18.213L35.4746 17.6852C35.6125 17.6099 35.7073 17.4745 35.7311 17.3195L36.0829 14.9926C36.121 14.7393 35.9625 14.4978 35.7147 14.4327L33.487 13.8457C33.445 13.8345 33.4023 13.8293 33.3589 13.8293C33.2766 13.8293 33.1944 13.8499 33.1205 13.8895L29.3976 15.8992L29.4693 15.672C29.4823 15.6283 29.49 15.5828 29.4921 15.5369L29.5638 13.1713C29.5719 12.8983 29.3605 12.6691 29.0882 12.6551L26.6463 12.5287C26.6372 12.5284 26.6291 12.5284 26.62 12.5284C26.4013 12.5284 26.2077 12.6698 26.1412 12.8798L26.0317 13.2284C25.9897 13.1657 25.9337 13.1129 25.8661 13.0737L15.4556 7.05269C15.3779 7.00754 15.2911 6.98479 15.2046 6.98479C15.1182 6.98479 15.031 7.00754 14.9537 7.05199L6.26953 12.0692C6.11448 12.1591 6.01858 12.3247 6.01858 12.5035L6.01893 20.5209C6.01893 20.7001 6.11413 20.866 6.26988 20.9552L11.0225 23.6999L1.24632 27.1047C1.01742 27.1845 0.878473 27.4158 0.915576 27.6556L1.13537 29.0717C1.14237 29.1168 1.15532 29.1606 1.17387 29.2015L2.00826 31.045C2.09156 31.2291 2.27321 31.34 2.46536 31.34C2.51996 31.34 2.57631 31.3309 2.63057 31.312L3.80199 30.9039L3.44709 31.1167C3.22835 31.2483 3.14295 31.5231 3.24829 31.7551L4.01163 33.4288C4.02983 33.4673 4.05223 33.5037 4.07883 33.5373L5.1215 34.8214C5.21985 34.9422 5.36439 35.0066 5.5114 35.0066C5.5996 35.0066 5.68885 34.9835 5.76934 34.9348L15.7328 28.9545L11.6725 36.8374C11.6168 36.9452 11.6021 37.0698 11.6312 37.1877L11.9878 38.6311C12.0316 38.8082 12.1674 38.9471 12.3431 38.9947L14.566 39.5985C14.6097 39.61 14.6538 39.616 14.6976 39.616C14.8817 39.616 15.056 39.5141 15.1435 39.344L19.9688 29.9729V40.5133C19.9688 40.7909 20.1935 41.0152 20.4707 41.0152H22.9239C23.2007 41.0152 23.4258 40.7909 23.4258 40.5133V29.8573L29.7089 33.4843C29.7866 33.5291 29.8731 33.5515 29.9599 33.5515C30.0467 33.5515 30.1335 33.5287 30.2112 33.4843L37.1533 29.4733C37.3084 29.3833 37.4036 29.2178 37.4036 29.0389V25.3811L45.6054 27.8185C45.653 27.8321 45.7006 27.8391 45.7485 27.8391C45.9421 27.8391 46.1244 27.7261 46.2067 27.5416L47.0467 25.659C47.0754 25.5946 47.0904 25.5249 47.0904 25.4549L47.0901 24.0325C47.0901 23.8106 46.9441 23.6146 46.7313 23.5513L46.7315 23.5518ZM42.9182 19.4593L43.529 20.2153L35.1553 19.7246L33.7654 18.9234L42.9182 19.4593ZM35.0048 17.0842L32.7242 18.3239L31.3232 17.5105L35.2621 15.3787L35.0048 17.0842ZM33.39 14.5996L34.9089 15L30.8157 17.2152L30.0866 16.7917C30.0775 16.7861 30.067 16.7857 30.0576 16.7815C30.0412 16.7738 30.0251 16.7679 30.0069 16.7644C29.9922 16.7612 29.9771 16.7612 29.9621 16.7612C29.9456 16.7609 29.9295 16.7612 29.9124 16.7647C29.8949 16.7682 29.8791 16.7749 29.8634 16.7812C29.8532 16.785 29.8438 16.7857 29.8343 16.7913L28.2208 17.7227L27.9443 17.562L27.9534 17.5323C27.9566 17.5309 27.9594 17.5319 27.9615 17.5302L28.6681 17.1462H28.6684L33.39 14.5996ZM28.7385 15.4802L28.3406 16.7542L28.1684 16.848L28.7543 14.9756L28.7385 15.4802ZM25.8643 16.2677L26.7992 13.2903L28.7238 13.3897L27.4981 17.3093L25.8643 16.3647V16.2677ZM15.2029 7.77672L25.1126 13.5083L16.9374 18.2231L7.02235 12.5034L15.2029 7.77672ZM25.3626 13.9422V16.0748L24.0053 15.2887C23.9952 15.2831 23.9854 15.2827 23.9752 15.2782C23.9591 15.2712 23.9441 15.2652 23.9266 15.2621C23.9101 15.2586 23.8944 15.2586 23.8779 15.2586C23.8629 15.2586 23.8478 15.2586 23.8328 15.2617C23.8142 15.2652 23.7971 15.2722 23.7799 15.2799C23.7708 15.2834 23.7617 15.2838 23.7533 15.289L18.545 18.2965C18.5412 18.299 18.5384 18.3032 18.5345 18.306C18.5244 18.3119 18.516 18.3186 18.5076 18.3266C18.4985 18.3347 18.4904 18.342 18.4824 18.3518C18.4754 18.3599 18.4687 18.3679 18.4628 18.377C18.4596 18.3816 18.4551 18.384 18.4526 18.3882C18.4502 18.3921 18.4502 18.3984 18.4477 18.4029C18.4428 18.4131 18.4386 18.4225 18.4351 18.4334C18.4313 18.4446 18.4281 18.4554 18.426 18.4666C18.4239 18.4778 18.4225 18.4883 18.4215 18.4992C18.4215 18.5041 18.4183 18.5086 18.4183 18.5139V21.386L17.2423 21.7941L17.242 21.7944C17.2234 21.8011 17.2073 21.814 17.1902 21.8249C17.1891 21.8259 17.1877 21.8263 17.1863 21.8273V18.6588L25.3626 13.9422ZM6.77165 20.3763V12.9377L16.6858 18.657V22.0499L16.6788 22.0478C16.6694 22.0446 16.6599 22.0467 16.6501 22.0453C16.6337 22.0422 16.6179 22.0408 16.6011 22.0415C16.585 22.0418 16.57 22.0439 16.5549 22.0474C16.5448 22.0495 16.535 22.0478 16.5248 22.0513L12.2479 23.5384L6.77165 20.3763ZM1.69111 27.7476L12.305 24.0513L16.6131 22.5529L16.8644 22.6278C16.8879 22.6348 16.912 22.6383 16.9362 22.6383C16.9684 22.6383 16.9999 22.6313 17.03 22.6197C17.0426 22.6141 17.052 22.6057 17.0636 22.5987C17.0776 22.5903 17.0933 22.584 17.1056 22.5725L17.457 22.2505L18.7527 21.8007C18.753 21.8007 18.753 21.8004 18.7537 21.8004L19.5993 21.5095L19.6686 21.9631V21.9635L19.7358 22.4111L1.833 28.6586L1.69111 27.7476ZM2.59937 30.5262L1.97253 29.1409L14.5433 24.7541L8.13588 28.5967L2.59937 30.5262ZM5.62335 34.1445L5.07385 32.9307L17.9511 25.1962L16.796 27.4389L5.62335 34.1445ZM12.6835 38.3074L12.4637 37.4194L14.1374 37.8692L14.3537 38.761L12.6835 38.3074ZM20.2203 27.8422L14.7834 38.4015L14.613 37.6976L20.2206 26.8033L20.2203 27.8422ZM20.2203 25.7079L14.2165 37.372L12.484 36.9065L17.2096 27.7324L18.7675 24.7074L20.2207 23.8397L20.2203 25.7079ZM20.2203 23.2552L18.4489 24.3118L18.4486 24.3122L4.81069 32.5039L4.08305 31.6131L8.37261 29.0396L15.8076 24.5806L20.2165 23.091C20.2175 23.0906 20.2186 23.0896 20.22 23.0889L20.2203 23.2552ZM20.3663 22.754V22.7526L20.2588 22.5093L20.1755 21.9553L20.353 21.8513L20.7765 22.3707L20.7768 22.3711L21.0687 22.7295H20.4713C20.4331 22.7295 20.3985 22.7389 20.3663 22.754H20.3663ZM22.6731 40.2634H20.7219V39.3657H22.6731V40.2634ZM22.6731 26.9866V38.8639H20.7219L20.7215 27.9023V23.2309H22.6738L22.6735 26.986L22.6731 26.9866ZM21.6515 22.653L21.7785 22.6866L21.7565 22.7293H21.6949L21.6837 22.7044C21.6812 22.6988 21.676 22.6953 21.6735 22.6904C21.6711 22.6855 21.6711 22.6792 21.6676 22.6743C21.6641 22.6694 21.6592 22.6663 21.656 22.6617C21.6539 22.6586 21.6536 22.6558 21.6515 22.653H21.6515ZM22.7613 22.73H22.3214L22.3676 22.6407C22.3735 22.6292 22.3742 22.6155 22.3781 22.6036C22.3795 22.598 22.3858 22.5956 22.3872 22.59C22.3893 22.5819 22.3872 22.5746 22.3886 22.5665C22.391 22.5501 22.3921 22.5343 22.3917 22.5175C22.3914 22.5004 22.3896 22.486 22.3861 22.4692C22.3826 22.4542 22.3777 22.4402 22.3711 22.4262C22.3644 22.4111 22.3571 22.3964 22.3476 22.3831C22.3385 22.3705 22.3287 22.3597 22.3175 22.3492C22.3056 22.3373 22.293 22.3264 22.278 22.3177C22.2713 22.3131 22.2675 22.3072 22.2598 22.303C22.2507 22.2984 22.2412 22.2984 22.2328 22.2949C22.2244 22.2914 22.2178 22.2855 22.2094 22.2834L21.1136 21.9918L20.6054 21.3685C20.5984 21.3601 20.5893 21.3566 20.5819 21.3489C20.57 21.3374 20.5578 21.3262 20.5438 21.3178C20.5291 21.3087 20.5147 21.3027 20.499 21.2968C20.485 21.2912 20.472 21.2863 20.4573 21.2842C20.4398 21.2807 20.4227 21.2803 20.4052 21.2807C20.3905 21.281 20.3772 21.2817 20.3632 21.2845C20.3457 21.288 20.3299 21.2947 20.3135 21.301C20.304 21.3055 20.2939 21.3055 20.2848 21.3111L20.094 21.4231L20.0503 21.1393C20.0492 21.1312 20.0443 21.1256 20.0422 21.1176C20.0408 21.1099 20.0419 21.1029 20.0391 21.0955C20.0359 21.0864 20.0289 21.0805 20.0254 21.0721C20.0177 21.0567 20.0101 21.0416 19.9992 21.028C19.9897 21.0161 19.9803 21.0052 19.9691 20.9954C19.9562 20.9839 19.9428 20.9734 19.9275 20.9643C19.9156 20.9573 19.903 20.9517 19.8897 20.9468C19.8732 20.9401 19.8571 20.9363 19.8389 20.9331C19.8235 20.9307 19.8078 20.9307 19.7924 20.931C19.7822 20.9314 19.7735 20.9286 19.7637 20.93C19.7556 20.931 19.75 20.9359 19.7427 20.938C19.735 20.9401 19.7276 20.9384 19.7206 20.9412L18.9223 21.2162V18.9518L22.7618 21.1749V22.7299L22.7613 22.73ZM19.1718 18.5135L23.8782 15.7955L25.4875 16.7271L27.5182 17.9013C27.5203 17.9024 27.522 17.9017 27.5241 17.9027C27.5273 17.9048 27.529 17.9076 27.5322 17.9094L27.6064 17.9461L27.7208 18.013L23.0123 20.7373L19.1718 18.5135ZM29.7096 32.6174L23.2637 28.8958V21.4622L29.7096 25.1788V32.6174ZM23.5142 21.0268L28.3432 18.2324H28.3435L28.3456 18.231C28.346 18.231 28.346 18.2306 28.3467 18.2306L29.9598 17.3L30.685 17.721L32.5946 18.8305H32.5949V18.8309L34.9546 20.191H34.9557L36.4012 21.0278L29.9605 24.7444L23.5142 21.0268ZM36.6513 22.5748V28.8958L30.2106 32.6169L30.211 25.1784L36.6516 21.4618L36.6513 22.5748ZM37.1371 20.9466C37.1332 20.9361 37.129 20.926 37.1245 20.9162C37.1224 20.9116 37.1224 20.906 37.1196 20.9022C37.1171 20.8976 37.1126 20.8952 37.1094 20.891C37.1035 20.8815 37.0968 20.8738 37.0898 20.8647C37.0818 20.8556 37.0744 20.8476 37.0646 20.8395C37.0562 20.8318 37.0482 20.8259 37.0384 20.8199C37.0345 20.8168 37.0314 20.8122 37.0279 20.8098L36.1196 20.2844L43.7278 20.7303L43.1458 22.3238L41.3639 22.2209L37.144 20.9627C37.1426 20.9571 37.1384 20.9525 37.137 20.9466L37.1371 20.9466ZM45.6088 27.0355L37.1528 24.5222V22.9114L46.2427 25.6155L45.6088 27.0355ZM46.3375 25.1192L37.1527 22.3875V21.4895L41.2476 22.7106H41.2487L46.3376 24.2215L46.3375 25.1192Z" fill="black"/>
</svg>
